<?xml version="1.0" encoding="UTF-8"?>
<svg version="1.1" xmlns="http://www.w3.org/2000/svg" width="1000" height="1000">
<path d="M0 0 C8.97395146 -0.0482795 17.9392898 -0.04110065 26.91015625 0.21875 C54.48113 1.00053631 82.04477008 1.125 109.625 1.125 C110.60123573 1.125 111.57747147 1.125 112.5832901 1.125 C139.28148827 1.12058638 165.96085747 0.97410353 192.64837646 0.15353394 C200.76464961 -0.07956648 208.88124359 -0.04321361 217 0 C217 4.62 217 9.24 217 14 C215.68386719 14.09796875 214.36773438 14.1959375 213.01171875 14.296875 C195.36330097 15.45340079 195.36330097 15.45340079 180.4296875 24.14453125 C175.68062545 30.30793145 174.72385789 37.83125678 173.91445923 45.35067749 C173.82888531 46.13947465 173.7433114 46.92827182 173.65514433 47.74097192 C172.84498299 55.7126474 172.69233994 63.63292224 172.68115234 71.63916016 C172.67181782 73.20830277 172.66164416 74.77744058 172.65071106 76.34657288 C172.62379321 80.54164409 172.60837747 84.73668252 172.59528303 88.93181658 C172.57948203 93.34002916 172.55274753 97.7481763 172.5272522 102.15634155 C172.48076097 110.47492786 172.44387494 118.79352689 172.41057932 127.11217535 C172.3649374 138.37358919 172.30417458 149.63492129 172.24433136 160.89626694 C172.15065901 178.59746998 172.07694458 196.29869801 172 214 C218.2 214 264.4 214 312 214 C311.88009176 185.7997538 311.88009176 185.7997538 311.7421875 157.59960938 C311.68190947 146.08945519 311.62355599 134.57931544 311.578125 123.0690918 C311.54501959 114.68395299 311.50508836 106.29887812 311.45720994 97.91381019 C311.43212783 93.48052824 311.41029434 89.04728769 311.39665604 84.61395454 C311.38366742 80.42704956 311.36143914 76.24028794 311.33261681 72.05346298 C311.32367034 70.53030273 311.31788178 69.00711949 311.31578636 67.4839344 C311.30291656 59.53792516 310.99583255 51.71450967 310.09335327 43.81504822 C310.01453592 43.11676897 309.93571857 42.41848971 309.85451281 41.69905049 C308.96688892 34.6106091 307.14146579 28.8144979 302.8125 23.125 C292.57474285 15.38980571 280.38270203 14.79038524 268 14 C268 9.38 268 4.76 268 0 C277.04689132 -0.04893518 286.08497027 -0.03584264 295.12890625 0.21875 C322.03598038 0.96067362 348.9327199 1.11358639 375.84852219 1.12338257 C378.69183473 1.12496758 381.53513851 1.12850229 384.37844849 1.13256836 C406.9657997 1.1612184 429.53247668 0.95097747 452.11248779 0.34939575 C462.74513544 0.06918763 473.36363441 -0.06124276 484 0 C484 4.62 484 9.24 484 14 C482.76765625 14.09796875 481.5353125 14.1959375 480.265625 14.296875 C461.9264264 15.49362961 461.9264264 15.49362961 447 25 C440.62606998 36.34559543 440.70256425 49.97822444 440.73930359 62.62910461 C440.73627567 64.06022899 440.73238301 65.49135175 440.72771102 66.9224717 C440.71750467 70.81858486 440.71959386 74.71460525 440.72389162 78.61072576 C440.72637234 82.82693984 440.71732806 87.04313235 440.70985413 91.25933838 C440.69714229 99.50533996 440.69530904 107.75130893 440.69765439 115.99731866 C440.69944166 122.70406418 440.69767915 129.41079984 440.69342995 136.11754417 C440.69253716 137.5525483 440.69253716 137.5525483 440.69162634 139.0165424 C440.69041452 140.96038976 440.68920038 142.90423712 440.68798397 144.84808447 C440.67712196 163.05402299 440.67926456 181.25994295 440.68536881 199.4658825 C440.69053668 216.09587622 440.67928356 232.72581133 440.66027059 249.35579345 C440.64086624 266.46015551 440.63264075 283.56448987 440.63639385 300.668863 C440.63830196 310.26015571 440.63585642 319.85139857 440.62167931 329.44268227 C440.60973138 337.60800366 440.60839873 345.7732445 440.62046947 353.93856708 C440.6263343 358.09856434 440.6275245 362.25841449 440.61546707 366.41840172 C440.60452709 370.23746992 440.60780659 374.05626963 440.62172876 377.8753257 C440.62558292 379.88796785 440.61489534 381.9006223 440.60343188 383.91323549 C440.67562512 396.26087504 441.17502164 411.98543891 450.25 421.3125 C456.3021428 425.0263149 462.70462678 426.52968913 469.625 427.625 C470.34945313 427.74617188 471.07390625 427.86734375 471.8203125 427.9921875 C473.1747038 428.21791938 474.52961854 428.44055514 475.88525391 428.65869141 C478.59184734 429.09552096 481.29568487 429.54928081 484 430 C484 434.29 484 438.58 484 443 C412.72 443 341.44 443 268 443 C267.67 438.71 267.34 434.42 267 430 C268.68867187 429.76925781 270.37734375 429.53851562 272.1171875 429.30078125 C274.36992355 428.97225724 276.62252063 428.64277928 278.875 428.3125 C279.98359375 428.16361328 281.0921875 428.01472656 282.234375 427.86132812 C290.6001663 426.60645943 299.1543407 424.64360234 304.9375 418 C312.5653009 405.60145437 311.15192366 387.76640375 311.20532227 373.78833008 C311.21492079 372.18081421 311.22493196 370.57330075 311.23532104 368.96578979 C311.26216259 364.63395032 311.28328337 360.30210018 311.30332303 355.97022462 C311.32531187 351.43119546 311.35263697 346.89219838 311.37937927 342.35319519 C311.42913289 333.77229027 311.47413542 325.19136738 311.51740164 316.61042756 C311.57619567 305.00486196 311.64238855 293.39933866 311.70815182 281.79381084 C311.81145511 263.52923581 311.90492443 245.26462401 312 227 C265.8 227 219.6 227 172 227 C172.11993447 254.99809795 172.11993447 254.99809795 172.2578125 282.99609375 C172.31807333 294.42494901 172.37642252 305.85378981 172.421875 317.28271484 C172.45499713 325.60889977 172.49493704 333.93502052 172.54279006 342.26113427 C172.56785589 346.66258996 172.58969381 351.06400419 172.60334396 355.46551132 C172.61634783 359.62369248 172.63859108 363.78172994 172.66738319 367.93983078 C172.67631815 369.45128303 172.68211537 370.96275833 172.68421364 372.47423553 C171.91626693 398.22515555 171.91626693 398.22515555 182.15551758 420.42553711 C188.69034786 426.00371321 197.34910069 427.04200155 205.5625 428.25 C206.66658203 428.42273438 207.77066406 428.59546875 208.90820312 428.7734375 C211.60374258 429.19352157 214.30165283 429.59834579 217 430 C217 434.29 217 438.58 217 443 C145.39 443 73.78 443 0 443 C0 438.71 0 434.42 0 430 C1.62808594 429.75765625 3.25617188 429.5153125 4.93359375 429.265625 C7.10166552 428.92774369 9.26962867 428.58916493 11.4375 428.25 C12.50677734 428.09273437 13.57605469 427.93546875 14.67773438 427.7734375 C20.61707585 426.82895506 25.77531 425.56259752 31.17993164 422.89355469 C33 422 33 422 36 421 C38.00739683 417.83705371 38.9624752 414.24689584 40.0625 410.6875 C40.40410156 409.59824219 40.74570312 408.50898437 41.09765625 407.38671875 C43.26380144 399.25664133 43.14644103 391.3015229 43.14044189 382.93383789 C43.14302795 381.49068116 43.14604178 380.04752515 43.1494453 378.60437012 C43.15749052 374.64718875 43.15930348 370.69002554 43.16004276 366.73283696 C43.16189767 362.46132629 43.16944726 358.18982495 43.17617798 353.9183197 C43.1897448 344.58124927 43.19578361 335.24418314 43.20018864 325.90710449 C43.20295418 320.07275298 43.20719213 314.23840313 43.21169281 308.40405273 C43.22388394 292.23874007 43.23418316 276.07342873 43.2375679 259.90811157 C43.23778747 258.8739993 43.23800703 257.83988703 43.23823325 256.77443802 C43.23845153 255.73789987 43.23866981 254.70136172 43.2388947 253.63341331 C43.23933816 251.53311539 43.23978472 249.43281746 43.24023438 247.33251953 C43.24056652 245.7698006 43.24056652 245.7698006 43.24090537 244.1755116 C43.24485099 227.3052028 43.26229848 210.43493727 43.2855939 193.56464517 C43.30933813 176.22882917 43.32177117 158.89303485 43.32293582 141.55720234 C43.32385092 131.8300319 43.32956146 122.10291781 43.34775543 112.37576294 C43.36319801 104.09059845 43.36825248 95.80550772 43.36001733 87.52033156 C43.35612534 83.29771341 43.35696895 79.07524362 43.37107468 74.85264397 C43.38390136 70.9772666 43.38254017 67.10214774 43.37048396 63.22677028 C43.36763111 61.18128579 43.37939595 59.13579646 43.39190602 57.09034824 C43.33334854 45.99863462 43.05432534 31.54182398 35 23 C25.94529159 14.67054736 11.59836181 14.64435343 0 14 C0 9.38 0 4.76 0 0 Z " fill="#E14030" transform="translate(448,283)"/>
<path d="M0 0 C14.25993511 -0.05353331 28.51124516 -0.00642408 42.76953125 0.21875 C93.50770207 0.99920088 144.24312768 1.11385623 194.98628742 1.12283063 C201.67230773 1.12409799 208.35832338 1.12783517 215.04434204 1.13256836 C260.040146 1.16217943 305.0131652 0.95884328 350 0 C350.03791175 6.90087859 350.05520244 13.76534515 349.59765625 20.65234375 C349.5114402 22.00194573 349.42534487 23.35155543 349.33935547 24.70117188 C349.29405701 25.39009521 349.24875854 26.07901855 349.2020874 26.78881836 C347.56504547 51.98795439 346.91102997 77.12594905 346.875 102.375 C346.87232117 103.41833496 346.86964233 104.46166992 346.86688232 105.53662109 C346.83729556 120.71612656 347.25874284 135.83884267 348 151 C342.72 151 337.44 151 332 151 C331.45472656 148.62361328 331.45472656 148.62361328 330.8984375 146.19921875 C327.8102516 132.92396264 324.40557674 119.89864878 320 107 C319.7844043 106.34338379 319.56880859 105.68676758 319.34667969 105.01025391 C312.97241171 85.67693267 303.09122113 67.57745305 290 52 C289.5373877 51.44248047 289.07477539 50.88496094 288.59814453 50.31054688 C272.53835513 31.17790462 250.4648595 19.23373324 225.6875 16.27734375 C201.82101557 14.41824867 201.82101557 14.41824867 180 22 C171.07130247 32.33849188 172.84160046 48.72705294 172.79467773 61.53540039 C172.78508517 63.20173376 172.77507431 64.86806476 172.76467896 66.53439331 C172.73777306 71.03576771 172.7166865 75.53715243 172.69667697 80.03856206 C172.67472853 84.75110432 172.6473834 89.46361526 172.62062073 94.1761322 C172.57081312 103.09001426 172.52583029 112.00391382 172.48259836 120.91782993 C172.43312367 131.0702241 172.37824365 141.22258682 172.32291877 151.37495053 C172.20928203 172.24993769 172.1024035 193.12495491 172 214 C175.85281774 213.55450722 179.70382687 213.09489347 183.5546875 212.6328125 C184.63967529 212.50753174 185.72466309 212.38225098 186.8425293 212.25317383 C206.27630753 209.89689285 223.65237222 199.62152207 236 184.3671875 C248.64246057 168.21777012 257.52840747 151.12216639 262 131 C267.28 131 272.56 131 278 131 C277.89606934 132.81129395 277.89606934 132.81129395 277.79003906 134.65917969 C276.71159606 155.4630918 276.76202677 176.28507881 276.75161743 197.11118698 C276.75053508 199.21162331 276.7488009 201.31205939 276.74642944 203.41249466 C276.7071008 239.03548128 277.55293655 274.4546679 280 310 C274.72 310 269.44 310 264 310 C263.72027344 308.741875 263.44054687 307.48375 263.15234375 306.1875 C258.59859604 286.4578215 251.35839134 269.47431973 238 254 C237.40703125 253.31035156 236.8140625 252.62070312 236.203125 251.91015625 C222.01164105 236.59669601 202.36269968 229.72669807 182.0859375 227.91796875 C181.11422607 227.82849976 180.14251465 227.73903076 179.14135742 227.64685059 C176.76116936 227.42814246 174.38073925 227.21260943 172 227 C172.08418386 246.65518692 172.17941962 266.31029137 172.28752708 285.9653616 C172.33747935 295.0931833 172.38392302 304.22099681 172.421875 313.34887695 C172.45499378 321.31211632 172.49493195 329.27528854 172.54279006 337.23845345 C172.56785916 341.44816978 172.58969618 345.65784271 172.60334396 349.86761284 C172.61634478 353.84440289 172.63858501 357.82104255 172.66738319 361.79774857 C172.67632046 363.24350527 172.68211595 364.68928609 172.68421364 366.13506889 C172.6973616 373.8328295 173.02877314 381.41352126 173.91055298 389.05702209 C173.98989401 389.74706217 174.06923505 390.43710225 174.15098035 391.14805263 C175.36668341 400.82767362 177.52673712 411.17517642 185 418 C196.71103908 426.37130561 213.05675544 426.49354217 226.9375 427.1875 C228.41086209 427.26920005 229.88417026 427.35187832 231.35742188 427.43554688 C234.90447052 427.63669899 238.45171592 427.81798181 242 428 C242 432.95 242 437.9 242 443 C162.14 443 82.28 443 0 443 C0 438.71 0 434.42 0 430 C1.62808594 429.75765625 3.25617188 429.5153125 4.93359375 429.265625 C7.10166552 428.92774369 9.26962867 428.58916493 11.4375 428.25 C12.50677734 428.09273437 13.57605469 427.93546875 14.67773438 427.7734375 C20.61707585 426.82895506 25.77531 425.56259752 31.17993164 422.89355469 C33 422 33 422 36 421 C38.00739683 417.83705371 38.9624752 414.24689584 40.0625 410.6875 C40.40410156 409.59824219 40.74570313 408.50898437 41.09765625 407.38671875 C43.26380144 399.25664133 43.14644103 391.3015229 43.14044189 382.93383789 C43.14302795 381.49068116 43.14604178 380.04752515 43.1494453 378.60437012 C43.15749052 374.64718875 43.15930348 370.69002554 43.16004276 366.73283696 C43.16189767 362.46132629 43.16944726 358.18982495 43.17617798 353.9183197 C43.1897448 344.58124927 43.19578361 335.24418314 43.20018864 325.90710449 C43.20295418 320.07275298 43.20719213 314.23840313 43.21169281 308.40405273 C43.22388394 292.23874007 43.23418316 276.07342873 43.2375679 259.90811157 C43.23778747 258.8739993 43.23800703 257.83988703 43.23823325 256.77443802 C43.23845153 255.73789987 43.23866981 254.70136172 43.2388947 253.63341331 C43.23933816 251.53311539 43.23978472 249.43281746 43.24023438 247.33251953 C43.24056652 245.7698006 43.24056652 245.7698006 43.24090537 244.1755116 C43.24485099 227.3052028 43.26229848 210.43493727 43.2855939 193.56464517 C43.30933813 176.22882917 43.32177117 158.89303485 43.32293582 141.55720234 C43.32385092 131.8300319 43.32956146 122.10291781 43.34775543 112.37576294 C43.36319801 104.09059845 43.36825248 95.80550772 43.36001733 87.52033156 C43.35612534 83.29771341 43.35696895 79.07524362 43.37107468 74.85264397 C43.38390136 70.9772666 43.38254017 67.10214774 43.37048396 63.22677028 C43.36763111 61.18128579 43.37939595 59.13579646 43.39190602 57.09034824 C43.33334854 45.99863462 43.05432534 31.54182398 35 23 C25.94529159 14.67054736 11.59836181 14.64435343 0 14 C0 9.38 0 4.76 0 0 Z " fill="#E7D4B7" transform="translate(68,283)"/>
</svg>
