<?xml version="1.0" encoding="UTF-8"?>
<!DOCTYPE svg PUBLIC "-//W3C//DTD SVG 1.1//EN" "http://www.w3.org/Graphics/SVG/1.1/DTD/svg11.dtd">
<svg xmlns="http://www.w3.org/2000/svg" version="1.1" width="1920px" height="304px" style="shape-rendering:geometricPrecision; text-rendering:geometricPrecision; image-rendering:optimizeQuality; fill-rule:evenodd; clip-rule:evenodd" xmlns:xlink="http://www.w3.org/1999/xlink">
<g><path style="opacity:1" fill="#e03d2a" d="M 1713.5,56.5 C 1723.88,56.1619 1734.22,56.6619 1744.5,58C 1754.31,60.8807 1763.97,64.0474 1773.5,67.5C 1778.96,66.6419 1781.63,63.3085 1781.5,57.5C 1785.17,57.5 1788.83,57.5 1792.5,57.5C 1791.59,77.4822 1791.26,97.4822 1791.5,117.5C 1787.83,117.5 1784.17,117.5 1780.5,117.5C 1774.81,81.8537 1754.14,65.6871 1718.5,69C 1703.89,74.7184 1698.72,85.2184 1703,100.5C 1706.56,108.394 1712.39,113.894 1720.5,117C 1732.96,121.933 1745.63,126.266 1758.5,130C 1797.42,144.346 1809.25,170.846 1794,209.5C 1785.28,222.457 1773.11,230.291 1757.5,233C 1743.56,235.8 1729.56,236.134 1715.5,234C 1704.79,231.428 1694.29,228.262 1684,224.5C 1682.44,224.603 1680.94,224.937 1679.5,225.5C 1677.77,227.793 1676.44,230.293 1675.5,233C 1671.83,233.667 1668.17,233.667 1664.5,233C 1665.23,210.163 1665.9,187.497 1666.5,165C 1669.88,164.176 1673.22,164.343 1676.5,165.5C 1678.25,179.998 1683.09,193.331 1691,205.5C 1706.26,221.941 1724.76,227.441 1746.5,222C 1764.38,213.71 1769.21,200.544 1761,182.5C 1755.67,176.84 1749.51,172.34 1742.5,169C 1729.9,164.466 1717.23,160.132 1704.5,156C 1668.7,140.886 1658.54,115.386 1674,79.5C 1684.1,66.5327 1697.27,58.8661 1713.5,56.5 Z"/></g>
<g><path style="opacity:1" fill="#e03d2a" d="M 1130.5,58.5 C 1134.23,58.1774 1137.89,58.5108 1141.5,59.5C 1165.8,111.441 1190.64,163.108 1216,214.5C 1218.44,216.969 1221.27,218.802 1224.5,220C 1229.12,220.994 1233.78,221.494 1238.5,221.5C 1238.5,224.833 1238.5,228.167 1238.5,231.5C 1207.17,231.5 1175.83,231.5 1144.5,231.5C 1144.5,228.167 1144.5,224.833 1144.5,221.5C 1151.6,221.916 1158.1,220.249 1164,216.5C 1164.4,215.128 1164.9,213.795 1165.5,212.5C 1161.67,201.163 1157,190.163 1151.5,179.5C 1130.84,178.334 1110.17,178.167 1089.5,179C 1083.83,188.872 1081.99,199.372 1084,210.5C 1089.45,218.141 1096.95,221.975 1106.5,222C 1107.45,225.057 1107.78,228.223 1107.5,231.5C 1083.17,231.5 1058.83,231.5 1034.5,231.5C 1034.22,228.223 1034.55,225.057 1035.5,222C 1049.06,220.646 1059.23,214.146 1066,202.5C 1088.34,154.833 1109.84,106.833 1130.5,58.5 Z M 1118.5,111.5 C 1128,129.831 1137,148.498 1145.5,167.5C 1128.18,168.666 1110.84,168.833 1093.5,168C 1102.25,149.332 1110.58,130.499 1118.5,111.5 Z"/></g>
<g><path style="opacity:1" fill="#e1ceb5" d="M 278.5,59.5 C 306.655,60.8008 334.822,60.8008 363,59.5C 380.039,59.3619 396.539,62.1952 412.5,68C 432.102,79.1121 438.602,95.6121 432,117.5C 426.381,129.119 417.547,137.285 405.5,142C 399.853,143.938 394.187,145.771 388.5,147.5C 407.741,150.255 420.907,160.588 428,178.5C 430.717,190.038 434.05,201.371 438,212.5C 443.636,218.757 449.636,219.091 456,213.5C 457.632,215.933 459.132,218.433 460.5,221C 453.673,229.582 444.673,234.249 433.5,235C 419.084,237.728 406.917,233.894 397,223.5C 395.667,220.833 394.333,218.167 393,215.5C 389.132,200.629 385.799,185.629 383,170.5C 380.939,162.446 376.106,156.946 368.5,154C 360.862,153.015 353.196,152.515 345.5,152.5C 345.333,172.169 345.5,191.836 346,211.5C 346.303,213.888 347.137,216.055 348.5,218C 352.896,220.299 357.562,221.466 362.5,221.5C 362.5,224.833 362.5,228.167 362.5,231.5C 334.167,231.5 305.833,231.5 277.5,231.5C 277.5,228.167 277.5,224.833 277.5,221.5C 283.566,221.158 289.566,220.325 295.5,219C 298.381,217.749 300.214,215.583 301,212.5C 302.145,190.382 302.645,168.215 302.5,146C 302.64,123.46 302.14,100.96 301,78.5C 299.833,76 298,74.1667 295.5,73C 289.968,71.2738 284.301,70.2738 278.5,70C 277.203,66.5011 277.203,63.0011 278.5,59.5 Z M 345.5,70.5 C 384.968,66.3987 400.134,83.7321 391,122.5C 386.671,133.83 378.504,140.33 366.5,142C 359.508,142.5 352.508,142.666 345.5,142.5C 345.5,118.5 345.5,94.5 345.5,70.5 Z"/></g>
<g><path style="opacity:1" fill="#e1ceb5" d="M 646.5,59.5 C 693.161,60.8119 739.828,60.8119 786.5,59.5C 786.12,75.7696 786.787,91.9363 788.5,108C 784.833,108.667 781.167,108.667 777.5,108C 766.88,77.839 745.547,65.339 713.5,70.5C 713.5,93.8333 713.5,117.167 713.5,140.5C 737.305,143.523 750.805,133.19 754,109.5C 757.394,108.544 760.894,108.211 764.5,108.5C 763.27,133.163 763.27,157.83 764.5,182.5C 761.167,182.5 757.833,182.5 754.5,182.5C 752.357,157.246 738.69,146.58 713.5,150.5C 713.333,169.503 713.5,188.503 714,207.5C 713.851,213.384 716.351,217.551 721.5,220C 746.598,225.199 765.431,216.699 778,194.5C 782.71,185.868 786.543,176.868 789.5,167.5C 793.107,166.511 796.774,166.177 800.5,166.5C 798.216,188.102 797.216,209.768 797.5,231.5C 747.167,231.5 696.833,231.5 646.5,231.5C 646.5,228.167 646.5,224.833 646.5,221.5C 652.238,221.18 657.905,220.347 663.5,219C 666.756,217.413 668.923,214.913 670,211.5C 671.127,189.531 671.627,167.531 671.5,145.5C 671.627,123.469 671.127,101.469 670,79.5C 669.214,76.4173 667.381,74.2506 664.5,73C 658.968,71.2738 653.301,70.2738 647.5,70C 646.544,66.6064 646.211,63.1064 646.5,59.5 Z"/></g>
<g><path style="opacity:1" fill="#e03d2a" d="M 828.5,59.5 C 857.171,60.8248 885.837,60.8248 914.5,59.5C 914.5,63.1667 914.5,66.8333 914.5,70.5C 909.629,70.1922 904.963,71.0255 900.5,73C 898.106,74.9522 896.606,77.4522 896,80.5C 895.5,100.497 895.333,120.497 895.5,140.5C 917.833,140.5 940.167,140.5 962.5,140.5C 962.927,120.126 962.427,99.7932 961,79.5C 960.464,77.1311 959.297,75.1311 957.5,73.5C 952.828,71.4789 947.994,70.1456 943,69.5C 942.502,66.1832 942.335,62.8499 942.5,59.5C 971.497,60.8246 1000.5,60.8246 1029.5,59.5C 1029.79,63.1064 1029.46,66.6064 1028.5,70C 1022.7,70.2738 1017.03,71.2738 1011.5,73C 1008.57,74.2598 1006.74,76.4265 1006,79.5C 1004.87,101.632 1004.37,123.799 1004.5,146C 1004.37,168.201 1004.87,190.368 1006,212.5C 1006.83,216 1009,218.167 1012.5,219C 1018.08,220.485 1023.74,221.318 1029.5,221.5C 1029.5,224.833 1029.5,228.167 1029.5,231.5C 1000.5,231.5 971.5,231.5 942.5,231.5C 942.5,228.167 942.5,224.833 942.5,221.5C 947.754,221.437 952.754,220.27 957.5,218C 959.317,216.2 960.484,214.034 961,211.5C 962.399,191.2 962.899,170.866 962.5,150.5C 940.167,150.5 917.833,150.5 895.5,150.5C 895.045,171.887 895.545,193.22 897,214.5C 897.833,216.667 899.333,218.167 901.5,219C 905.728,220.412 910.061,221.246 914.5,221.5C 914.5,224.833 914.5,228.167 914.5,231.5C 885.833,231.5 857.167,231.5 828.5,231.5C 828.5,228.167 828.5,224.833 828.5,221.5C 834.224,221.076 839.89,220.243 845.5,219C 848,217.833 849.833,216 851,213.5C 852.146,191.048 852.646,168.548 852.5,146C 852.646,123.452 852.146,100.952 851,78.5C 849.437,75.2716 846.937,73.1049 843.5,72C 838.552,70.9502 833.552,70.4502 828.5,70.5C 828.5,66.8333 828.5,63.1667 828.5,59.5 Z"/></g>
<g><path style="opacity:1" fill="#e03d2a" d="M 1245.5,59.5 C 1268.85,60.666 1292.18,60.8326 1315.5,60C 1340.03,92.9008 1364.2,126.067 1388,159.5C 1389.01,160.337 1390.18,160.67 1391.5,160.5C 1391.67,134.831 1391.5,109.165 1391,83.5C 1390.84,77.6714 1388,73.8381 1382.5,72C 1377.55,71.0046 1372.55,70.3379 1367.5,70C 1366.54,66.6064 1366.21,63.1064 1366.5,59.5C 1386.51,60.8069 1406.51,60.8069 1426.5,59.5C 1426.79,63.1064 1426.46,66.6064 1425.5,70C 1419.7,70.2738 1414.03,71.2738 1408.5,73C 1405.34,74.4798 1403.5,76.9798 1403,80.5C 1402.5,131.499 1402.33,182.499 1402.5,233.5C 1398.49,233.666 1394.49,233.499 1390.5,233C 1354.52,183.528 1318.19,134.361 1281.5,85.5C 1280.33,126.829 1280.17,168.163 1281,209.5C 1282.81,216.183 1287.31,219.683 1294.5,220C 1300.47,220.963 1306.47,221.463 1312.5,221.5C 1312.5,224.833 1312.5,228.167 1312.5,231.5C 1289.83,231.5 1267.17,231.5 1244.5,231.5C 1244.22,228.223 1244.55,225.057 1245.5,222C 1251.27,221.538 1256.94,220.538 1262.5,219C 1265,217.833 1266.83,216 1268,213.5C 1269.14,190.873 1269.64,168.207 1269.5,145.5C 1269.65,123.118 1269.15,100.785 1268,78.5C 1266.44,75.2716 1263.94,73.1049 1260.5,72C 1255.55,70.9502 1250.55,70.4502 1245.5,70.5C 1245.5,66.8333 1245.5,63.1667 1245.5,59.5 Z"/></g>
<g><path style="opacity:1" fill="#e03d2a" d="M 1449.5,59.5 C 1481.16,60.4823 1512.82,60.649 1544.5,60C 1569.62,60.1512 1592.28,67.4846 1612.5,82C 1629.76,98.3781 1637.76,118.545 1636.5,142.5C 1636.42,184.734 1616.42,212.568 1576.5,226C 1568,228.501 1559.33,230.167 1550.5,231C 1516.83,231.5 1483.17,231.667 1449.5,231.5C 1449.5,228.167 1449.5,224.833 1449.5,221.5C 1455.64,221.643 1461.64,220.81 1467.5,219C 1470.49,217.345 1472.32,214.845 1473,211.5C 1474.14,189.707 1474.64,167.874 1474.5,146C 1474.63,123.799 1474.13,101.632 1473,79.5C 1472.26,76.4265 1470.43,74.2598 1467.5,73C 1461.97,71.2738 1456.3,70.2738 1450.5,70C 1449.54,66.6064 1449.21,63.1064 1449.5,59.5 Z M 1516.5,69.5 C 1532.17,68.8045 1547.5,70.6378 1562.5,75C 1580.01,85.8286 1589.51,101.662 1591,122.5C 1594.7,147.132 1592.36,171.132 1584,194.5C 1576.58,209.799 1564.42,218.632 1547.5,221C 1540.17,221.667 1532.83,221.667 1525.5,221C 1521.67,219.833 1519.17,217.333 1518,213.5C 1516.54,165.524 1516.04,117.524 1516.5,69.5 Z"/></g>
<g><path style="opacity:1" fill="#e1ceb5" d="M 118.5,59.5 C 164.826,60.8121 211.159,60.8121 257.5,59.5C 257.386,77.1998 258.053,94.8665 259.5,112.5C 255.833,112.5 252.167,112.5 248.5,112.5C 239.907,80.3443 218.907,66.3443 185.5,70.5C 185.5,94.8333 185.5,119.167 185.5,143.5C 194.945,144.441 203.945,142.941 212.5,139C 219.628,131.24 223.962,122.073 225.5,111.5C 228.768,110.513 232.102,110.18 235.5,110.5C 233.971,136.208 234.305,161.874 236.5,187.5C 232.833,187.5 229.167,187.5 225.5,187.5C 224.966,176.891 221.299,167.558 214.5,159.5C 210.879,156.856 206.879,155.023 202.5,154C 196.843,153.501 191.176,153.334 185.5,153.5C 185.036,173.567 185.536,193.567 187,213.5C 188.251,216.381 190.417,218.214 193.5,219C 200.436,220.409 207.436,221.242 214.5,221.5C 214.5,224.833 214.5,228.167 214.5,231.5C 182.5,231.5 150.5,231.5 118.5,231.5C 118.5,228.167 118.5,224.833 118.5,221.5C 124.224,221.076 129.89,220.243 135.5,219C 138,217.833 139.833,216 141,213.5C 142.14,190.873 142.64,168.207 142.5,145.5C 142.646,123.118 142.146,100.785 141,78.5C 139.833,76 138,74.1667 135.5,73C 129.99,71.11 124.324,70.2767 118.5,70.5C 118.5,66.8333 118.5,63.1667 118.5,59.5 Z"/></g>
<g><path style="opacity:1" fill="#e1ceb5" d="M 465.5,59.5 C 511.826,60.8121 558.159,60.8121 604.5,59.5C 604.475,75.8652 605.141,92.1985 606.5,108.5C 602.774,108.823 599.107,108.489 595.5,107.5C 590.668,88.8352 579.001,77.0019 560.5,72C 551.212,70.7244 541.879,70.2244 532.5,70.5C 532.5,93.8333 532.5,117.167 532.5,140.5C 556.796,143.538 570.129,132.871 572.5,108.5C 576.167,108.5 579.833,108.5 583.5,108.5C 582.243,133.148 582.243,157.814 583.5,182.5C 579.833,182.5 576.167,182.5 572.5,182.5C 570.802,157.48 557.469,146.814 532.5,150.5C 532.333,170.836 532.5,191.169 533,211.5C 533.668,215.499 535.835,218.332 539.5,220C 564.457,225.581 583.29,217.414 596,195.5C 601.102,186.631 605.102,177.298 608,167.5C 611.744,166.374 615.577,166.207 619.5,167C 617.129,188.381 615.796,209.881 615.5,231.5C 565.5,231.5 515.5,231.5 465.5,231.5C 465.5,228.167 465.5,224.833 465.5,221.5C 471.238,221.18 476.905,220.347 482.5,219C 485,217.833 486.833,216 488,213.5C 489.146,190.881 489.646,168.215 489.5,145.5C 489.333,124.167 489.167,102.833 489,81.5C 487.932,76.7647 485.099,73.5981 480.5,72C 475.877,71.0418 471.21,70.3751 466.5,70C 465.544,66.6064 465.211,63.1064 465.5,59.5 Z"/></g>
</svg>
