<?xml version="1.0" encoding="utf-8"?>
<!DOCTYPE svg PUBLIC "-//W3C//DTD SVG 20010904//EN" "http://www.w3.org/TR/2001/REC-SVG-20010904/DTD/svg10.dtd">
<svg version="1.0" xmlns="http://www.w3.org/2000/svg" width="1026pt" height="1026pt" viewBox="0 0 1026 1026" preserveAspectRatio="xMidYMid meet">
<g fill="#000000FE">
<path d="M 481.00 333.30 C 464.64 332.33 424.82 327.01 410.50 323.89 C 367.48 314.50 306.00 293.37 306.00 287.98 C 306.00 285.02 311.55 257.90 319.50 222.00 C 323.70 203.03 328.87 179.62 331.00 170.00 C 333.12 160.38 336.67 144.35 338.89 134.39 C 347.92 93.80 357.41 72.49 373.15 57.43 C 384.99 46.10 396.04 41.87 408.85 43.77 C 420.76 45.54 427.30 49.47 442.50 64.00 C 457.78 78.61 465.44 84.41 476.09 89.46 C 498.03 99.85 521.37 99.35 544.12 88.00 C 555.86 82.14 562.69 76.93 576.50 63.32 C 589.62 50.39 596.33 46.05 606.46 43.99 C 627.22 39.75 648.19 53.49 661.55 80.09 C 670.76 98.44 673.32 108.16 712.87 274.79 L 716.74 291.08 L 713.93 292.54 C 712.38 293.34 706.22 295.99 700.24 298.44 C 655.85 316.63 599.94 329.47 550.00 332.97 C 536.78 333.89 494.38 334.10 481.00 333.30Z"/></g>
<g fill="#000000FE">
<path d="M 455.50 509.92 C 362.06 505.21 268.04 486.94 213.00 462.82 C 170.23 444.07 153.22 420.86 164.38 396.47 C 167.50 389.66 177.35 379.54 187.00 373.23 C 206.95 360.18 242.83 346.52 277.74 338.69 L 288.98 336.16 L 305.24 342.65 C 350.83 360.83 400.18 374.46 438.77 379.51 C 494.68 386.84 541.79 386.35 595.41 377.88 C 638.35 371.10 671.25 362.10 710.81 346.31 L 732.11 337.81 L 739.31 339.54 C 750.75 342.29 773.43 349.49 787.80 354.92 C 826.80 369.68 847.37 385.00 852.44 403.08 C 858.14 423.40 843.78 442.10 809.50 458.95 C 791.99 467.56 781.79 471.52 759.29 478.46 C 710.59 493.48 658.67 502.64 588.50 508.61 C 566.86 510.45 482.49 511.28 455.50 509.92Z"/></g>
<g fill="#000000FE">
<path d="M 418.39 998.25 C 418.67 997.29 420.04 991.98 421.42 986.44 C 427.28 963.01 437.56 934.47 451.47 903.00 C 465.20 871.93 479.57 845.81 498.51 817.50 C 519.79 785.69 538.58 763.20 570.40 731.45 C 613.97 687.98 664.09 650.04 724.88 614.50 C 737.11 607.35 748.72 600.18 750.69 598.57 C 752.65 596.96 755.32 593.36 756.62 590.57 C 758.98 585.51 758.98 585.41 758.99 545.87 C 759.00 515.37 759.29 506.02 760.25 505.26 C 760.94 504.71 764.65 503.25 768.50 502.00 C 791.69 494.49 821.15 480.97 837.14 470.48 L 845.50 465.01 L 847.50 467.33 C 848.60 468.61 857.38 479.03 867.00 490.48 C 876.62 501.94 891.20 519.23 899.39 528.91 C 925.11 559.30 943.42 581.16 944.72 583.02 C 945.85 584.62 945.17 585.31 938.24 589.59 C 933.98 592.21 911.15 606.59 887.50 621.54 C 826.92 659.83 823.75 661.82 792.50 681.33 C 777.10 690.94 761.58 700.54 758.01 702.65 C 752.43 705.97 751.87 706.54 754.01 706.80 C 757.41 707.21 821.22 719.53 833.00 722.05 C 838.23 723.17 843.51 724.30 844.75 724.56 C 845.99 724.82 847.00 725.51 847.00 726.08 C 847.00 726.65 846.56 726.85 846.03 726.52 C 842.49 724.33 781.55 740.18 748.33 751.91 C 701.19 768.57 660.20 788.46 609.00 819.52 C 544.42 858.70 489.71 905.94 447.45 959.00 C 437.28 971.78 421.64 994.40 420.50 998.00 C 419.72 1000.45 417.66 1000.70 418.39 998.25Z"/></g>
<g fill="#000000FE">
<path d="M 420.00 849.12 C 368.84 822.27 345.80 810.52 293.00 784.34 C 235.81 755.98 180.97 729.29 175.25 727.04 C 173.46 726.33 172.00 725.43 172.00 725.02 C 172.00 724.62 176.84 722.15 182.75 719.55 C 202.80 710.70 256.92 688.00 257.96 688.00 C 260.77 688.00 257.91 685.90 246.24 679.39 C 184.48 644.92 92.11 592.45 86.25 588.50 L 82.99 586.31 L 108.25 558.35 C 122.14 542.97 144.66 517.92 158.29 502.69 C 171.92 487.46 183.42 475.00 183.84 475.00 C 184.26 475.00 186.75 476.36 189.38 478.02 C 200.20 484.89 216.72 492.22 238.92 500.02 L 252.34 504.73 L 255.52 517.61 C 273.58 590.85 321.18 666.91 393.14 737.53 C 413.13 757.15 440.21 781.08 457.39 794.33 C 463.94 799.37 470.20 804.22 471.31 805.09 C 473.30 806.66 473.19 806.93 465.31 820.59 C 460.90 828.24 454.19 840.46 450.39 847.74 C 446.60 855.02 443.27 860.97 443.00 860.95 C 442.73 860.94 432.38 855.61 420.00 849.12Z"/></g>
<g fill="#FF0000FE">
<path d="M 398.50 644.92 C 394.10 644.47 388.93 643.67 387.00 643.15 C 385.07 642.63 379.90 641.25 375.50 640.09 C 366.26 637.66 348.80 629.28 343.96 624.96 C 342.13 623.33 340.36 622.00 340.02 622.00 C 338.16 622.00 326.29 608.63 322.75 602.56 C 320.49 598.68 318.09 594.83 317.43 594.00 C 314.99 590.97 310.84 577.28 308.96 566.05 C 307.09 554.87 306.90 554.39 303.14 551.00 C 300.80 548.88 294.37 545.42 286.88 542.24 C 280.07 539.34 273.88 536.58 273.12 536.10 C 271.71 535.20 268.45 511.88 269.40 509.40 C 269.66 508.72 270.69 508.34 271.69 508.56 C 272.68 508.78 280.02 510.52 288.00 512.44 C 309.78 517.66 342.08 524.02 348.14 524.27 C 351.09 524.40 353.73 524.77 354.00 525.10 C 354.82 526.08 382.96 530.24 385.06 529.69 C 386.13 529.42 387.00 529.53 387.00 529.96 C 387.00 530.74 389.73 531.09 415.00 533.52 C 449.01 536.79 458.18 537.12 513.00 537.01 C 564.32 536.90 571.84 536.67 595.00 534.50 C 625.10 531.67 632.15 530.81 658.00 526.85 C 684.54 522.79 708.76 517.97 736.00 511.35 C 739.58 510.48 743.74 509.69 745.25 509.58 L 748.00 509.39 L 747.99 520.94 C 747.97 532.77 747.42 537.00 745.91 537.00 C 745.44 537.00 742.10 538.35 738.50 540.00 C 734.90 541.65 731.71 543.00 731.41 543.00 C 729.50 543.00 718.95 548.79 716.29 551.30 C 712.95 554.43 712.89 554.62 709.40 573.00 C 702.33 610.16 674.63 635.29 631.50 643.66 C 619.71 645.96 592.72 645.95 578.15 643.65 C 566.00 641.74 549.28 637.07 540.05 633.02 C 531.70 629.36 516.19 621.12 515.48 619.98 C 514.05 617.65 504.10 620.45 491.70 626.67 C 470.46 637.32 447.15 644.02 429.72 644.49 C 424.90 644.61 420.66 645.01 420.31 645.36 C 419.48 646.18 408.76 645.96 398.50 644.92ZM 437.80 618.56 C 448.14 616.71 465.78 610.79 472.80 606.80 C 480.30 602.55 485.00 594.59 485.00 586.14 C 485.00 578.65 479.28 568.26 473.50 565.24 C 470.28 563.55 459.92 562.58 435.50 561.67 C 416.47 560.95 395.16 558.76 368.50 554.78 C 341.43 550.73 338.36 550.67 335.75 554.15 C 333.92 556.59 333.85 557.33 334.93 563.54 C 336.47 572.34 339.86 582.73 342.44 586.50 C 347.68 594.18 356.08 602.74 362.32 606.77 C 371.14 612.48 388.49 618.91 397.00 619.62 C 400.57 619.91 403.72 620.40 404.00 620.70 C 404.87 621.65 429.14 620.11 437.80 618.56ZM 623.62 619.46 C 642.63 616.16 655.15 610.63 666.38 600.57 C 672.51 595.09 674.41 592.57 678.29 584.77 C 684.26 572.81 686.99 559.81 684.53 555.06 C 682.43 551.00 679.99 550.58 668.90 552.39 C 637.11 557.57 608.98 560.48 576.00 561.99 C 563.62 562.56 551.92 563.29 550.00 563.61 C 541.18 565.06 535.02 572.96 534.25 583.80 C 533.99 587.49 534.28 592.36 534.90 594.64 C 536.33 599.95 542.87 606.58 549.62 609.59 C 556.92 612.83 573.58 617.88 582.17 619.45 C 592.41 621.32 612.89 621.32 623.62 619.46Z"/></g>
</svg>
